<svg xmlns="http://www.w3.org/2000/svg" width="360" height="150" viewBox="0 0 360 150"><title>Layered backyard hedge, Phase 13 authored source</title><ellipse cx="184" cy="133" fill="#18372b" opacity=".22" rx="166" ry="11"/><path fill="#315f49" stroke="#274638" stroke-linejoin="round" stroke-width="6" d="M20 130c-15-25 1-49 25-53-10-22 8-47 34-42 10-27 43-31 59-10 17-25 53-21 63 5 24-15 54-3 55 23 29-16 61 2 58 31 27-3 42 20 34 46Z"/><path fill="#56835b" d="M40 109c-3-17 12-30 28-27 3-17 23-24 37-14 8-20 34-24 48-8 14-14 38-8 43 11 17-8 35 4 33 22 20-7 39 5 37 23H42Z"/><g fill="#b6bd79"><circle cx="81" cy="83" r="5"/><circle cx="132" cy="101" r="4"/><circle cx="193" cy="79" r="5"/><circle cx="251" cy="103" r="4"/></g><path fill="none" stroke="#739465" stroke-linecap="round" stroke-width="5" d="M55 123c44-12 78-9 112-1s77 7 137-4" opacity=".7"/></svg>